# xmcd
#
# Track frame offsets:
#	150
#	13695
#	30090
#	44663
#	53866
#	62829
#	76622
#	87572
#	97982
#	108910
#	121683
#	131996
#
# Disc length: 1916 seconds
#
# Revision: 1
# Processed by: cddbd v1.5.2PL0 Copyright (c) Steve Scherf et al.
# Submitted via: audiograbber 1.83.01
#
DISCID=91077a0c
DTITLE=Osborne Brothers - Cuttin' Grass Osborne Brothers Style
DYEAR=1963
DGENRE=Bluegrass
TTITLE0=Sweet Thing
TTITLE1=Ruby, Are You Mad
TTITLE2=May You Never Be Alone
TTITLE3=Ballad Of Jed Clampett
TTITLE4=Sour Wood Mountain
TTITLE5=Send Me The Pillow That You Dream On
TTITLE6=Bluegrass Music's Really Gone To Town
TTITLE7=Night Train To Memphis
TTITLE8=New Partner Waltz
TTITLE9=Memories Never Die
TTITLE10=Worried Man Blues
TTITLE11=White Lightning
EXTD=
EXTT0=
EXTT1=
EXTT2=
EXTT3=
EXTT4=
EXTT5=
EXTT6=
EXTT7=
EXTT8=
EXTT9=
EXTT10=
EXTT11=
PLAYORDER=
